<?xml version="1.0" encoding="utf-8"?>

<!DOCTYPE svg PUBLIC "-//W3C//DTD SVG 1.1//EN" "http://www.w3.org/Graphics/SVG/1.1/DTD/svg11.dtd">
<svg version="1.1" xmlns="http://www.w3.org/2000/svg" xmlns:xlink="http://www.w3.org/1999/xlink" width="10670" height="50" viewBox="0 0 10670 50">
 <defs>
    <linearGradient id="grad1" x1="0%" y1="0%" x2="100%" y2="0%">
      <stop offset="0%" style="stop-color:#00e0d0;stop-opacity:1" />
      <stop offset="100%" style="stop-color:#49a4cc;stop-opacity:1" />
    </linearGradient>
  </defs>

<svg id="icon-heart" width="54" height="50"  fill="url(#grad1)" viewBox="0 0 54 50" x="0" y="0">

<path fill="url(#grad1)" d="M6.413 2.5c-5 3.37-7.337 9.837-5.543 15.598 1.25 4.076 23.152 30.707 25.924 31.63 1.359 0.435 19.348-19.511 24.565-27.174 9.674-14.239-6.739-29.239-20.489-18.75l-3.859 2.935-2.337-2.228c-5.38-5-12.663-5.815-18.261-2.011zM17.609 4.239c1.413 0.543 4.185 2.5 6.196 4.348 3.043 2.88 3.859 3.152 4.891 1.848 8.098-10.326 22.554-7.826 22.337 3.913-0.054 3.75-20.978 31.304-23.804 31.304-1.141 0-20.109-22.826-22.228-26.793-4.674-8.75 3.424-18.152 12.609-14.62z"></path>
</svg>
<svg id="icon-game" width="41" height="50" viewBox="0 0 41 50" x="180" y="0">
<path fill="url(#grad1)" d="M4.050 0.65c-3.875 1.375-3.8 0.85-3.8 24.275 0 27.65-2.1 25.075 20.35 25.075 22.25 0 20.4 2.25 20.4-24.9 0-21.4-0.1-22.15-2.8-23.925-1.775-1.175-31.125-1.625-34.15-0.525zM36.775 4.225l1.225 1.225v19.625c0 19.45 0 19.625-1.075 20.775l-1.1 1.15h-30.375l-2.45-2.45v-39.1l2.45-2.45h30.1l1.225 1.225z"></path>
<path fill="url(#grad1)" d="M7.275 7.275c-1.1 1.125-1.175 21.5-0.075 23 1.025 1.375 25.225 1.525 26.6 0.15 1.1-1.125 1.4-20.35 0.35-22.55l-0.675-1.375h-12.7c-10.875 0-12.825 0.125-13.5 0.775zM31.25 18.75v9h-21.5l-0.15-8.475c-0.075-4.675 0-8.775 0.125-9.15 0.2-0.5 2.5-0.625 10.9-0.5l10.625 0.125v9z"></path>
<path fill="url(#grad1)" d="M9.85 34.8c-0.2 0.2-0.35 0.875-0.35 1.5 0 0.875-0.325 1.175-1.375 1.3-1.1 0.125-1.375 0.4-1.375 1.4s0.275 1.275 1.375 1.4c1.050 0.125 1.375 0.425 1.375 1.325 0 0.625 0.3 1.4 0.675 1.725 1.1 0.9 2.325 0.125 2.325-1.5 0-1.275 0.175-1.45 1.45-1.45 1.625 0 2.4-1.225 1.5-2.325-0.325-0.375-1.1-0.675-1.725-0.675-0.9 0-1.2-0.325-1.325-1.375-0.15-1.35-1.7-2.15-2.55-1.325z"></path>
<path fill="url(#grad1)" d="M23.825 35.25c-0.475 1.225 0.2 2.25 1.45 2.25 1.175 0 2.075-1.525 1.475-2.5-0.475-0.775-2.6-0.6-2.925 0.25z"></path>
<path fill="url(#grad1)" d="M31.675 35.25c-0.425 1.15 0.175 2.25 1.25 2.25 1.45 0 2.35-1.3 1.575-2.25-0.35-0.425-1.050-0.75-1.575-0.75s-1.075 0.325-1.25 0.75z"></path>
<path fill="url(#grad1)" d="M22.525 41.225c-1.35 1.625 0.875 3.575 2.375 2.075 0.65-0.625 0.7-1.025 0.3-1.675-0.75-1.175-1.9-1.35-2.675-0.4z"></path>
<path fill="url(#grad1)" d="M30.475 41.3c-0.7 0.825-0.225 2.2 0.875 2.575 1.050 0.35 2.2-1.35 1.625-2.4-0.625-1.175-1.625-1.25-2.5-0.175z"></path>
</svg>
<svg id="icon-part" width="50" height="50" viewBox="0 0 50 50" x="360" y="0">
<path fill="url(#grad1)" d="M20.45 0.625c-0.025 0.35-0.075 1.4-0.125 2.375-0.050 1.475-0.275 1.775-1.325 1.925-15.375 1.975-23.775 21.225-15.225 34.85 7.75 12.35 27.050 13.45 36.375 2.075 1.025-1.25 1.85-2.45 1.85-2.675 0.050-1.5 1.85-2.725 3.15-2.125 2.2 1 2.925-0.275 4.375-7.75 1.925-9.825-4.15-21.325-13.775-26.075-4.9-2.425-15.175-4.175-15.3-2.6zM28.325 3.7c11.825 3.15 20.35 15.050 18.175 25.35-0.825 3.825-1.9 5.325-3.275 4.475-0.55-0.325-5.125-2-10.225-3.725l-9.25-3.125-0.25-11.45c-0.3-14.025-0.725-13 4.825-11.525zM20.25 18.2c-0.3 8.325-0.225 10.25 0.325 10.625 0.875 0.55 14.675 5.3 18.8 6.475 1.425 0.4 0.825 1.625-2.725 5.675-12.025 13.75-36.9 1.325-33.225-16.55 1.65-7.9 9.875-16.35 16-16.4l1.2-0.025-0.375 10.2z"></path>
</svg>
<svg id="icon-phone" width="28" height="50" viewBox="0 0 28 50" x="540" y="0">
<path fill="url(#grad1)" d="M4.050 0.65c-3.85 1.35-3.775 0.925-3.925 23.775-0.15 27.275-1.075 25.7 14.75 25.475l9.6-0.15 1.65-1.625 1.625-1.65v-21.425c0-23.975 0.175-22.775-3.6-24.375-2.1-0.875-17.6-0.9-20.1-0.025zM23.15 3.575c1.45 0.75 1.825 1.4 1.85 3.050v1.375h-22v-1.475c0-3.025 1.55-3.525 10.85-3.525 5.225 0 8.625 0.2 9.3 0.575zM25 21.125v10.125h-22v-20.25h22v10.125zM25 39.75c0 7.5 0.4 7.25-10.975 7.25-11.35 0-11.025 0.225-11.025-7.35v-5.15h22v5.25z"></path>
<path fill="url(#grad1)" d="M12.1 38.275c-2.25 1.6-1 5.4 1.8 5.4 2.1 0 3.1-0.975 3.1-2.95 0-1.725-1.4-3.225-3-3.225-0.425 0-1.275 0.35-1.9 0.775z"></path>
</svg>
<svg id="icon-paint" width="60" height="50" viewBox="0 0 60 50" x="720" y="0">
<path fill="url(#grad1)" d="M51.399 1.042c-1.042 0.565-8.899 7.708-17.44 15.833-13.512 12.857-15.863 14.851-17.768 15.119-4.167 0.536-7.262 2.887-8.869 6.696-1.22 2.827-2.976 4.613-5.030 5.089-2.262 0.476-2.143 0.982 0.685 2.946 8.72 6.042 23.006 2.44 23.333-5.863 0.060-1.845 1.518-3.393 16.101-17.113 18.155-17.113 18.899-18.125 15.774-21.577-1.815-2.024-4.435-2.47-6.786-1.131zM55.833 4.821c0.089 0.536-2.024 3.036-5.060 5.952-2.857 2.738-8.185 7.887-11.815 11.399-7.024 6.845-7.292 6.994-8.839 5.268-1.131-1.25-2.827 0.595 14.821-16.042 8.214-7.768 10.417-9.077 10.893-6.577zM27.262 33.155l-1.905 1.964-1.369-1.31-1.399-1.31 1.935-1.964 1.905-1.964 1.369 1.31 1.399 1.31-1.935 1.964zM21.994 36.696c4.107 5.238-5.536 12.321-13.304 9.762-2.5-0.833-2.53-0.863-0.893-2.589 0.685-0.714 1.726-2.262 2.321-3.393 2.649-5.149 9.167-7.232 11.875-3.78z"></path>
</svg>
<svg id="icon-comp" width="49"    height="50" viewBox="0 0 49 50" x="900" y="0">
<path fill="url(#grad1)" d="M3.333 1.103c-2.819 1.569-2.941 2.279-2.917 19.289 0 20.956-0.368 20.294 11.569 20.294h7.132v6.373h-2.157c-2.304 0-3.456 0.809-2.745 1.936 0.539 0.907 21.373 1.103 22.108 0.221 0.956-1.152-0.074-2.108-2.426-2.255l-2.279-0.147v-5.882l6.936-0.245c10.613-0.368 10.196 0.441 10.392-20.098 0.196-22.426 2.377-20.613-24.657-20.539-18.382 0.025-19.216 0.074-20.956 1.054zM44.877 4.142l1.201 1.201v22.843l-42.892-0.196-0.123-11.225-0.147-11.201 2.426-2.623h38.333l1.201 1.201zM45.98 33.456c0.294 4.167 0.931 4.044-21.569 4.044h-19.608l-0.931-1.152c-0.833-1.029-1.324-4.436-0.735-5.025 0.123-0.098 9.779-0.147 21.446-0.098l21.25 0.098 0.147 2.132zM28.676 43.873v2.941l-6.618 0.294v-6.471l6.618 0.294v2.941z"></path>
</svg>
</svg>
